<?xml version="1.0" encoding="UTF-8"?>
<svg width="20px" height="20px" viewBox="0 0 20 20" version="1.1" xmlns="http://www.w3.org/2000/svg" xmlns:xlink="http://www.w3.org/1999/xlink">
    <!-- Generator: Sketch 51.3 (57544) - http://www.bohemiancoding.com/sketch -->
    <title>Icon/24px/Github/Dark</title>
    <desc>Created with Sketch.</desc>
    <defs></defs>
    <g id="Onboarding" stroke="none" stroke-width="1" fill="none" fill-rule="evenodd">
        <g id="DML/Onboarding---Step-5" transform="translate(-774.000000, -507.000000)" fill="#0D2957" fill-rule="nonzero">
            <g id="Form" transform="translate(724.000000, 229.000000)">
                <g id="Developer" transform="translate(36.000000, 202.000000)">
                    <g id="Connect" transform="translate(0.000000, 68.000000)">
                        <g id="Icon/24px/Github/Dark" transform="translate(12.000000, 6.000000)">
                            <path d="M12,2 C6.47753906,2 2,6.47753906 2,12 C2,16.4189453 4.865,20.1665039 8.83898437,21.4885156 C9.33886719,21.5800781 9.52136719,21.2712305 9.52136719,21.0075586 C9.52136719,20.7695117 9.51220703,19.980957 9.50732422,19.1459961 C6.7265625,19.7502344 6.13878906,17.9667969 6.13878906,17.9667969 C5.68347656,16.8120117 5.02855469,16.5043945 5.02855469,16.5043945 C4.11974609,15.8842773 5.0975,15.8964844 5.0975,15.8964844 C6.10152344,15.9660547 6.63011719,16.9267578 6.63011719,16.9267578 C7.52246094,18.4550781 8.97142578,18.0131836 9.54027344,17.7568359 C9.63117187,17.1123047 9.88996094,16.6704102 10.1750391,16.4213867 C7.95519531,16.1687109 5.62,15.3105469 5.62,11.47875 C5.62,10.3862109 6.01001953,9.49511719 6.6484375,8.79503906 C6.54650391,8.54113281 6.20226562,7.52367188 6.74730469,6.14734375 C6.74730469,6.14734375 7.5859375,5.87878906 9.49753906,7.17273438 C10.2946484,6.94996094 11.1497656,6.84009766 11.9999805,6.83642578 C12.8495898,6.84009766 13.705293,6.95117188 14.5036523,7.17394531 C16.4116211,5.87878906 17.2514648,6.14855469 17.2514648,6.14855469 C17.7983398,7.52611328 17.4541016,8.54234375 17.3515625,8.79503906 C17.9924219,9.49511719 18.3793945,10.3862305 18.3793945,11.47875 C18.3793945,15.3203125 16.0405273,16.16625 13.8127539,16.4140625 C14.1728711,16.7241211 14.4914648,17.3320313 14.4914648,18.2646484 C14.4914648,19.6013281 14.4780273,20.6791992 14.4780273,21.0087891 C14.4780273,21.2749023 14.6599023,21.5861719 15.1665039,21.4885156 C19.1374609,20.1640625 22,16.4165039 22,12 C22,6.47753906 17.5224609,2 12,2 Z" id="Github"></path>
                        </g>
                    </g>
                </g>
            </g>
        </g>
    </g>
</svg>